<svg width="411" height="53" viewBox="0 0 411 53" fill="none" xmlns="http://www.w3.org/2000/svg">
<rect width="411" height="53" fill="black"/>
<path d="M65.442 13.6428C66.1063 13.1961 67 13.6722 67 14.4727V38.5306C67 39.3311 66.1063 39.8071 65.442 39.3604L47.552 27.3315C46.9626 26.9352 46.9626 26.068 47.552 25.6718L65.442 13.6428Z" stroke="white" stroke-width="2"/>
<path d="M331 15C331 14.4477 331.448 14 332 14H351C351.552 14 352 14.4477 352 15V38C352 38.5523 351.552 39 351 39H332C331.448 39 331 38.5523 331 38V15Z" stroke="white" stroke-width="2"/>
<path d="M217 26.5C217 33.4774 211.78 39 205.5 39C199.22 39 194 33.4774 194 26.5C194 19.5226 199.22 14 205.5 14C211.78 14 217 19.5226 217 26.5Z" stroke="white" stroke-width="2"/>
</svg>
