<svg width="98" height="27" viewBox="0 0 98 27" fill="none" xmlns="http://www.w3.org/2000/svg">
<path opacity="0.54" fill-rule="evenodd" clip-rule="evenodd" d="M47.502 16H46.708L46.432 15.726C47.407 14.589 48 13.115 48 11.5C48 7.91 45.09 5 41.5 5C37.91 5 35 7.91 35 11.5C35 15.09 37.91 18 41.5 18C43.115 18 44.588 17.408 45.725 16.434L46.001 16.708V17.5L50.999 22.491L52.49 21L47.502 16ZM41.5 16C39.014 16 37 13.986 37 11.5C37 9.015 39.014 7 41.5 7C43.985 7 46 9.015 46 11.5C46 13.986 43.985 16 41.5 16Z" fill="black"/>
<path opacity="0.54" fill-rule="evenodd" clip-rule="evenodd" d="M75.99 14L75.999 8C75.999 6.342 74.657 5 73 5C71.344 5 70 6.342 70 8V14C70 15.656 71.344 17 73 17C74.657 17 75.99 15.656 75.99 14ZM78.299 14C78.299 17 75.762 19.1 73 19.1C70.239 19.1 67.7 17 67.7 14H66C66 17.415 68.719 20.233 72 20.718V24H74V20.718C77.279 20.233 80 17.415 80 14H78.299Z" fill="black"/>
<path opacity="0.54" fill-rule="evenodd" clip-rule="evenodd" d="M96 10C97.1 10 98 9.1 98 8C98 6.9 97.1 6 96 6C94.9 6 94 6.9 94 8C94 9.1 94.9 10 96 10ZM96 12C94.9 12 94 12.9 94 14C94 15.1 94.9 16 96 16C97.1 16 98 15.1 98 14C98 12.9 97.1 12 96 12ZM96 18C94.9 18 94 18.9 94 20C94 21.1 94.9 22 96 22C97.1 22 98 21.1 98 20C98 18.9 97.1 18 96 18Z" fill="black"/>
<path opacity="0.54" fill-rule="evenodd" clip-rule="evenodd" d="M12 8C11.33 6.268 9.453 5 7.5 5C4.957 5 3 6.932 3 9.5C3 13.029 6.793 15.758 12 21C17.207 15.758 21 13.029 21 9.5C21 6.932 19.043 5 16.5 5C14.545 5 12.67 6.268 12 8Z" fill="black"/>
</svg>
